<svg xmlns="http://www.w3.org/2000/svg" xmlns:xlink="http://www.w3.org/1999/xlink" width="500" zoomAndPan="magnify" viewBox="0 0 375 262.499992" height="350" preserveAspectRatio="xMidYMid meet" version="1.0"><defs><g/><clipPath id="3029e3ae56"><path d="M 5.886719 74.558594 L 368.945312 74.558594 L 368.945312 256.464844 L 5.886719 256.464844 Z M 5.886719 74.558594 " clip-rule="nonzero"/></clipPath><clipPath id="e20c1b33ed"><path d="M 147 216 L 228 216 L 228 256.464844 L 147 256.464844 Z M 147 216 " clip-rule="nonzero"/></clipPath></defs><g clip-path="url(#3029e3ae56)"><path fill="#f3e198" d="M 149.210938 256.097656 C 149.253906 251.085938 150.261719 246.316406 152.078125 241.953125 L 15.929688 195.789062 L 24.480469 175.535156 L 152.398438 241.222656 C 154.253906 236.898438 156.917969 233.019531 160.144531 229.703125 L 51.308594 135.597656 L 66.839844 120.035156 L 160.710938 229.097656 C 164.136719 225.742188 168.214844 222.992188 172.730469 221.09375 L 108.953125 92.0625 L 129.285156 83.777344 L 173.375 220.851562 C 177.613281 219.191406 182.171875 218.222656 187.011719 218.183594 L 176.441406 74.558594 L 198.386719 74.558594 L 187.777344 218.183594 C 192.78125 218.222656 197.539062 219.234375 201.898438 221.050781 L 247.964844 84.625 L 268.175781 93.195312 L 202.621094 221.335938 C 206.9375 223.195312 210.8125 225.863281 214.121094 229.097656 L 308.03125 120.074219 L 323.5625 135.640625 L 214.683594 229.664062 C 218.03125 233.097656 220.777344 237.179688 222.671875 241.707031 L 351.476562 177.839844 L 359.746094 198.214844 L 222.953125 242.4375 C 224.609375 246.679688 225.578125 251.25 225.617188 256.097656 L 368.945312 245.46875 L 368.945312 256.464844 L 5.886719 256.464844 L 5.886719 245.46875 Z M 149.210938 256.097656 " fill-opacity="1" fill-rule="nonzero"/></g><g clip-path="url(#e20c1b33ed)"><path fill="#fcc22d" d="M 227.109375 256.464844 L 147.71875 256.464844 C 147.71875 234.511719 165.511719 216.6875 187.414062 216.6875 C 209.320312 216.6875 227.109375 234.511719 227.109375 256.464844 Z M 227.109375 256.464844 " fill-opacity="1" fill-rule="nonzero"/></g><g fill="#f29c38" fill-opacity="1"><g transform="translate(44.586826, 94.618795)"><g><path d="M 13.34375 -9.671875 C 11.207031 -8.046875 9.035156 -6.9375 6.828125 -6.34375 C 4.617188 -5.757812 2.492188 -5.765625 0.453125 -6.359375 C -1.585938 -6.953125 -3.359375 -8.179688 -4.859375 -10.046875 L 2.6875 -15.765625 C 3.625 -14.765625 4.625 -14.222656 5.6875 -14.140625 C 6.75 -14.054688 7.789062 -14.398438 8.8125 -15.171875 C 9.875 -15.972656 10.523438 -16.84375 10.765625 -17.78125 C 11.003906 -18.726562 10.800781 -19.628906 10.15625 -20.484375 C 9.601562 -21.210938 8.90625 -21.628906 8.0625 -21.734375 C 7.226562 -21.847656 6.34375 -21.785156 5.40625 -21.546875 C 4.46875 -21.316406 3.203125 -20.90625 1.609375 -20.3125 C -0.722656 -19.46875 -2.703125 -18.882812 -4.328125 -18.5625 C -5.960938 -18.238281 -7.632812 -18.316406 -9.34375 -18.796875 C -11.0625 -19.285156 -12.613281 -20.445312 -14 -22.28125 C -16.050781 -24.988281 -16.675781 -27.851562 -15.875 -30.875 C -15.082031 -33.894531 -13.109375 -36.601562 -9.953125 -39 C -6.742188 -41.4375 -3.570312 -42.628906 -0.4375 -42.578125 C 2.6875 -42.523438 5.359375 -41.1875 7.578125 -38.5625 L -0.109375 -32.734375 C -0.867188 -33.628906 -1.769531 -34.101562 -2.8125 -34.15625 C -3.863281 -34.21875 -4.890625 -33.875 -5.890625 -33.125 C -6.742188 -32.476562 -7.257812 -31.722656 -7.4375 -30.859375 C -7.613281 -30.003906 -7.378906 -29.148438 -6.734375 -28.296875 C -6.015625 -27.347656 -5.015625 -26.945312 -3.734375 -27.09375 C -2.453125 -27.25 -0.644531 -27.734375 1.6875 -28.546875 C 4.050781 -29.335938 6.039062 -29.890625 7.65625 -30.203125 C 9.28125 -30.515625 10.941406 -30.441406 12.640625 -29.984375 C 14.335938 -29.523438 15.847656 -28.421875 17.171875 -26.671875 C 18.429688 -25.015625 19.148438 -23.1875 19.328125 -21.1875 C 19.515625 -19.1875 19.109375 -17.175781 18.109375 -15.15625 C 17.117188 -13.144531 15.53125 -11.316406 13.34375 -9.671875 Z M 13.34375 -9.671875 "/></g></g></g><g fill="#f29c38" fill-opacity="1"><g transform="translate(70.132396, 75.214339)"><g><path d="M 14.6875 -7.46875 C 12.175781 -6.101562 9.628906 -5.414062 7.046875 -5.40625 C 4.460938 -5.394531 2.0625 -6.070312 -0.15625 -7.4375 C -2.375 -8.800781 -4.203125 -10.8125 -5.640625 -13.46875 C -7.066406 -16.09375 -7.738281 -18.71875 -7.65625 -21.34375 C -7.582031 -23.976562 -6.828125 -26.375 -5.390625 -28.53125 C -3.953125 -30.695312 -1.984375 -32.457031 0.515625 -33.8125 C 3.023438 -35.164062 5.578125 -35.851562 8.171875 -35.875 C 10.765625 -35.90625 13.179688 -35.234375 15.421875 -33.859375 C 17.660156 -32.484375 19.492188 -30.484375 20.921875 -27.859375 C 22.347656 -25.222656 23.007812 -22.585938 22.90625 -19.953125 C 22.8125 -17.328125 22.039062 -14.925781 20.59375 -12.75 C 19.15625 -10.582031 17.1875 -8.820312 14.6875 -7.46875 Z M 11.015625 -14.265625 C 12.503906 -15.078125 13.472656 -16.316406 13.921875 -17.984375 C 14.378906 -19.648438 14.054688 -21.503906 12.953125 -23.546875 C 11.835938 -25.597656 10.472656 -26.894531 8.859375 -27.4375 C 7.242188 -27.988281 5.6875 -27.859375 4.1875 -27.046875 C 2.664062 -26.222656 1.691406 -24.988281 1.265625 -23.34375 C 0.847656 -21.707031 1.203125 -19.851562 2.328125 -17.78125 C 3.429688 -15.738281 4.78125 -14.4375 6.375 -13.875 C 7.96875 -13.320312 9.515625 -13.453125 11.015625 -14.265625 Z M 11.015625 -14.265625 "/></g></g></g><g fill="#f29c38" fill-opacity="1"><g transform="translate(100.107758, 59.608735)"><g><path d="M -3.015625 -40.296875 L 11.28125 -4.5 L 3 -1.203125 L -11.296875 -37 Z M -3.015625 -40.296875 "/></g></g></g><g fill="#f29c38" fill-opacity="1"><g transform="translate(114.719621, 53.156101)"><g><path d="M -2.328125 -14.484375 C -3.097656 -17.359375 -3.222656 -20.03125 -2.703125 -22.5 C -2.191406 -24.976562 -1.15625 -27.050781 0.40625 -28.71875 C 1.96875 -30.394531 3.910156 -31.539062 6.234375 -32.15625 C 8.210938 -32.675781 10.054688 -32.734375 11.765625 -32.328125 C 13.472656 -31.921875 14.90625 -31.171875 16.0625 -30.078125 L 15 -34.046875 L 23.609375 -36.328125 L 31.0625 -8.234375 L 22.453125 -5.953125 L 21.40625 -9.921875 C 20.914062 -8.398438 20.03125 -7.035156 18.75 -5.828125 C 17.46875 -4.628906 15.835938 -3.765625 13.859375 -3.234375 C 11.566406 -2.628906 9.320312 -2.671875 7.125 -3.359375 C 4.9375 -4.054688 3.003906 -5.359375 1.328125 -7.265625 C -0.347656 -9.179688 -1.566406 -11.585938 -2.328125 -14.484375 Z M 18.734375 -20 C 18.160156 -22.15625 17.113281 -23.691406 15.59375 -24.609375 C 14.070312 -25.535156 12.457031 -25.773438 10.75 -25.328125 C 9.039062 -24.867188 7.75 -23.867188 6.875 -22.328125 C 6.007812 -20.785156 5.863281 -18.941406 6.4375 -16.796875 C 7 -14.640625 8.046875 -13.085938 9.578125 -12.140625 C 11.109375 -11.203125 12.726562 -10.960938 14.4375 -11.421875 C 16.144531 -11.867188 17.425781 -12.875 18.28125 -14.4375 C 19.144531 -16 19.296875 -17.851562 18.734375 -20 Z M 18.734375 -20 "/></g></g></g><g fill="#f29c38" fill-opacity="1"><g transform="translate(149.296605, 44.468309)"><g><path d="M 9.0625 -25.53125 C 9.894531 -27.25 11.03125 -28.660156 12.46875 -29.765625 C 13.914062 -30.867188 15.585938 -31.535156 17.484375 -31.765625 L 18.640625 -22.40625 L 16.21875 -22.109375 C 14 -21.835938 12.394531 -21.160156 11.40625 -20.078125 C 10.425781 -19.003906 10.085938 -17.273438 10.390625 -14.890625 L 12.046875 -1.5 L 3.203125 -0.390625 L -0.375 -29.234375 L 8.46875 -30.34375 Z M 9.0625 -25.53125 "/></g></g></g><g fill="#f3a33a" fill-opacity="1"><g transform="translate(172.63606, 41.861983)"><g/></g></g><g fill="#aa1155" fill-opacity="1"><g transform="translate(184.776712, 41.11942)"><g><path d="M 12.46875 -6.265625 L 24.125 -5.6875 L 23.78125 1.171875 L 3.234375 0.15625 L 5.03125 -36.359375 L 13.921875 -35.921875 Z M 12.46875 -6.265625 "/></g></g></g><g fill="#aa1155" fill-opacity="1"><g transform="translate(209.956786, 42.134206)"><g><path d="M 32.84375 -9.171875 C 32.6875 -8.347656 32.476562 -7.503906 32.21875 -6.640625 L 12.40625 -10.3125 C 12.207031 -8.507812 12.523438 -7.046875 13.359375 -5.921875 C 14.191406 -4.796875 15.347656 -4.097656 16.828125 -3.828125 C 19.003906 -3.421875 20.6875 -4.0625 21.875 -5.75 L 31.203125 -4.03125 C 30.378906 -2.226562 29.207031 -0.691406 27.6875 0.578125 C 26.164062 1.847656 24.382812 2.738281 22.34375 3.25 C 20.300781 3.757812 18.125 3.796875 15.8125 3.359375 C 13 2.847656 10.609375 1.785156 8.640625 0.171875 C 6.679688 -1.429688 5.289062 -3.453125 4.46875 -5.890625 C 3.65625 -8.335938 3.523438 -11.046875 4.078125 -14.015625 C 4.617188 -16.992188 5.703125 -19.476562 7.328125 -21.46875 C 8.953125 -23.46875 10.96875 -24.859375 13.375 -25.640625 C 15.789062 -26.429688 18.421875 -26.566406 21.265625 -26.046875 C 24.023438 -25.523438 26.375 -24.484375 28.3125 -22.921875 C 30.25 -21.367188 31.617188 -19.40625 32.421875 -17.03125 C 33.234375 -14.65625 33.375 -12.035156 32.84375 -9.171875 Z M 24.3125 -13.125 C 24.59375 -14.632812 24.300781 -15.925781 23.4375 -17 C 22.582031 -18.070312 21.390625 -18.753906 19.859375 -19.046875 C 18.390625 -19.316406 17.066406 -19.117188 15.890625 -18.453125 C 14.722656 -17.796875 13.875 -16.695312 13.34375 -15.15625 Z M 24.3125 -13.125 "/></g></g></g><g fill="#aa1155" fill-opacity="1"><g transform="translate(241.505613, 47.849398)"><g><path d="M 6.25 -13.265625 C 7.238281 -16.078125 8.640625 -18.359375 10.453125 -20.109375 C 12.273438 -21.867188 14.304688 -22.992188 16.546875 -23.484375 C 18.785156 -23.984375 21.039062 -23.832031 23.3125 -23.03125 C 25.226562 -22.34375 26.773438 -21.347656 27.953125 -20.046875 C 29.128906 -18.742188 29.890625 -17.316406 30.234375 -15.765625 L 31.609375 -19.640625 L 40 -16.65625 L 30.296875 10.734375 L 21.90625 7.75 L 23.28125 3.875 C 22 4.875 20.492188 5.503906 18.765625 5.765625 C 17.035156 6.035156 15.203125 5.828125 13.265625 5.140625 C 11.035156 4.347656 9.207031 3.046875 7.78125 1.234375 C 6.363281 -0.578125 5.503906 -2.742188 5.203125 -5.265625 C 4.898438 -7.785156 5.25 -10.453125 6.25 -13.265625 Z M 26.75 -5.953125 C 27.5 -8.046875 27.503906 -9.898438 26.765625 -11.515625 C 26.023438 -13.140625 24.820312 -14.25 23.15625 -14.84375 C 21.488281 -15.425781 19.859375 -15.328125 18.265625 -14.546875 C 16.679688 -13.765625 15.519531 -12.328125 14.78125 -10.234375 C 14.03125 -8.140625 14.019531 -6.269531 14.75 -4.625 C 15.488281 -2.988281 16.691406 -1.878906 18.359375 -1.296875 C 20.023438 -0.703125 21.65625 -0.804688 23.25 -1.609375 C 24.84375 -2.410156 26.007812 -3.859375 26.75 -5.953125 Z M 26.75 -5.953125 "/></g></g></g><g fill="#aa1155" fill-opacity="1"><g transform="translate(274.709513, 59.59334)"><g><path d="M 8.3125 -12.078125 C 9.757812 -14.679688 11.519531 -16.695312 13.59375 -18.125 C 15.675781 -19.5625 17.863281 -20.34375 20.15625 -20.46875 C 22.445312 -20.59375 24.644531 -20.070312 26.75 -18.90625 C 28.414062 -17.988281 29.75 -16.796875 30.75 -15.328125 C 31.75 -13.867188 32.316406 -12.328125 32.453125 -10.703125 L 38.96875 -22.515625 L 46.765625 -18.21875 L 28.140625 15.53125 L 20.34375 11.234375 L 22.359375 7.578125 C 20.953125 8.398438 19.367188 8.800781 17.609375 8.78125 C 15.859375 8.757812 14.085938 8.257812 12.296875 7.28125 C 10.191406 6.113281 8.582031 4.519531 7.46875 2.5 C 6.363281 0.476562 5.867188 -1.796875 5.984375 -4.328125 C 6.097656 -6.867188 6.875 -9.453125 8.3125 -12.078125 Z M 27.359375 -1.484375 C 28.441406 -3.441406 28.75 -5.28125 28.28125 -7 C 27.820312 -8.71875 26.816406 -10.003906 25.265625 -10.859375 C 23.722656 -11.710938 22.101562 -11.882812 20.40625 -11.375 C 18.707031 -10.863281 17.320312 -9.640625 16.25 -7.703125 C 15.175781 -5.742188 14.863281 -3.894531 15.3125 -2.15625 C 15.769531 -0.414062 16.769531 0.878906 18.3125 1.734375 C 19.863281 2.585938 21.492188 2.75 23.203125 2.21875 C 24.910156 1.6875 26.296875 0.453125 27.359375 -1.484375 Z M 27.359375 -1.484375 "/></g></g></g><g fill="#aa1155" fill-opacity="1"><g transform="translate(305.603586, 76.921355)"><g><path d="M 11.703125 9.5 C 9.679688 7.957031 8.148438 6.238281 7.109375 4.34375 C 6.066406 2.445312 5.550781 0.550781 5.5625 -1.34375 C 5.570312 -3.238281 6.097656 -4.972656 7.140625 -6.546875 L 14.109375 -1.1875 C 13.566406 -0.320312 13.4375 0.609375 13.71875 1.609375 C 14 2.617188 14.625 3.492188 15.59375 4.234375 C 16.476562 4.910156 17.296875 5.257812 18.046875 5.28125 C 18.796875 5.3125 19.378906 5.050781 19.796875 4.5 C 20.296875 3.84375 20.320312 3.09375 19.875 2.25 C 19.4375 1.40625 18.597656 0.195312 17.359375 -1.375 C 15.992188 -3.03125 14.925781 -4.492188 14.15625 -5.765625 C 13.382812 -7.046875 12.953125 -8.453125 12.859375 -9.984375 C 12.765625 -11.515625 13.320312 -13.066406 14.53125 -14.640625 C 15.539062 -15.960938 16.828125 -16.890625 18.390625 -17.421875 C 19.960938 -17.953125 21.703125 -17.988281 23.609375 -17.53125 C 25.515625 -17.082031 27.445312 -16.101562 29.40625 -14.59375 C 32.289062 -12.375 34.015625 -9.90625 34.578125 -7.1875 C 35.148438 -4.476562 34.65625 -1.847656 33.09375 0.703125 L 26.5625 -4.3125 C 27.0625 -5.1875 27.195312 -6.082031 26.96875 -7 C 26.738281 -7.925781 26.140625 -8.765625 25.171875 -9.515625 C 24.347656 -10.140625 23.59375 -10.460938 22.90625 -10.484375 C 22.21875 -10.515625 21.660156 -10.253906 21.234375 -9.703125 C 20.722656 -9.035156 20.691406 -8.265625 21.140625 -7.390625 C 21.597656 -6.523438 22.441406 -5.351562 23.671875 -3.875 C 25.046875 -2.125 26.101562 -0.628906 26.84375 0.609375 C 27.59375 1.859375 28.003906 3.273438 28.078125 4.859375 C 28.160156 6.441406 27.609375 8.039062 26.421875 9.65625 C 25.390625 11 24.085938 11.910156 22.515625 12.390625 C 20.941406 12.867188 19.210938 12.863281 17.328125 12.375 C 15.441406 11.894531 13.566406 10.9375 11.703125 9.5 Z M 11.703125 9.5 "/></g></g></g></svg>